<?xml version="1.0" encoding="utf-8"?>
<!-- Generator: Adobe Illustrator 20.1.0, SVG Export Plug-In . SVG Version: 6.00 Build 0)  -->
<svg version="1.1" id="Layer_1" xmlns="http://www.w3.org/2000/svg" xmlns:xlink="http://www.w3.org/1999/xlink" x="0px" y="0px"
	 viewBox="0 0 32 32" style="enable-background:new 0 0 32 32;" xml:space="preserve" width="120">
<style type="text/css">
	.st0{fill:#36434B;}
</style>
<path class="st0" d="M15.7,20.7c-0.3-0.6-0.1-1.4,0.6-1.7c0.6-0.3,1.3-0.1,1.6,0.5c0.5,0.9,0.6,2,0.5,3c-0.2,1-0.6,1.9-1.4,2.7
	l-0.1,0.1l-5.2,5.3h0l-0.1,0.1C10.7,31.5,9.5,32,8.2,32c-1.2,0-2.5-0.5-3.4-1.4l0,0l0,0l-3.4-3.4v0l-0.1-0.1C0.5,26.2,0,25,0,23.8
	c0-1.3,0.5-2.5,1.4-3.4l0,0l0.1-0.1L6.7,15l0,0l0,0c0.8-0.7,1.7-1.2,2.7-1.4c1-0.2,2,0,3,0.5c0.6,0.3,0.8,1,0.6,1.6
	c-0.3,0.6-1,0.8-1.7,0.5c-0.5-0.2-1-0.3-1.5-0.2c-0.5,0.1-1,0.3-1.3,0.7L3.2,22l0,0l0,0v0c-0.5,0.5-0.7,1.1-0.7,1.7
	c0,0.6,0.2,1.2,0.7,1.7l0,0h0l3.4,3.4v0c0.5,0.5,1.1,0.7,1.7,0.7c0.6,0,1.2-0.2,1.7-0.7l0.1,0v0h0l5.3-5.3l0.1-0.1
	c0.4-0.4,0.6-0.8,0.7-1.3C16,21.7,16,21.2,15.7,20.7L15.7,20.7z M11.6,22.1L11.6,22.1c-0.5,0.5-1.3,0.5-1.7,0
	c-0.5-0.5-0.5-1.3,0-1.7L20.4,9.9c0.5-0.5,1.3-0.5,1.7,0c0.5,0.5,0.5,1.3,0,1.7L11.6,22.1L11.6,22.1z M11.6,30.6L11.6,30.6
	C11.1,31,10.4,31,10,30.6L11.6,30.6L11.6,30.6z M1.4,27.1L1.4,27.1c-0.4-0.5-0.4-1.2,0.1-1.7L1.4,27.1L1.4,27.1z M16.3,11.3
	L16.3,11.3c0.3,0.6,0.1,1.3-0.5,1.6c-0.6,0.3-1.3,0.1-1.7-0.5c-0.5-0.9-0.6-2-0.4-3c0.2-1,0.6-1.9,1.4-2.7l0.1,0l5.3-5.3l0,0l0,0
	l0.1-0.1c1-0.9,2.2-1.4,3.4-1.4c1.2,0,2.5,0.5,3.4,1.4h0l0,0l3.4,3.4v0l0.1,0.1C31.5,5.8,32,7,32,8.2c0,1.2-0.5,2.5-1.4,3.5l0,0
	l-0.1,0.1L25.3,17l0,0v0c-0.8,0.8-1.7,1.2-2.7,1.4c-1,0.2-2,0-3-0.5c-0.6-0.3-0.8-1-0.5-1.6c0.3-0.6,1.1-0.9,1.7-0.5
	c0.5,0.2,1,0.3,1.5,0.2c0.5-0.1,0.9-0.3,1.3-0.7h0l5.2-5.3l0.1-0.1h0l0,0c0.5-0.5,0.7-1.1,0.7-1.7c0-0.6-0.2-1.2-0.6-1.7l-0.1-0.1h0
	l-3.4-3.4l0,0h0c-0.5-0.4-1.1-0.7-1.7-0.7c-0.6,0-1.2,0.2-1.7,0.7l0,0l0,0l0,0l-5.2,5.2l-0.1,0.1c-0.4,0.4-0.6,0.8-0.7,1.3
	C16,10.3,16,10.8,16.3,11.3L16.3,11.3z M20.4,1.4L20.4,1.4C20.8,0.9,21.6,1,22,1.4L20.4,1.4L20.4,1.4z M30.6,4.9L30.6,4.9
	C31,5.3,31,6.1,30.6,6.5L30.6,4.9L30.6,4.9z"/>
</svg>
