<?xml version="1.0" encoding="utf-8"?>
<!-- Generator: Adobe Illustrator 21.0.0, SVG Export Plug-In . SVG Version: 6.00 Build 0)  -->
<svg version="1.1" id="Layer_1" xmlns="http://www.w3.org/2000/svg" xmlns:xlink="http://www.w3.org/1999/xlink" x="0px" y="0px"
	 viewBox="0 0 32 32" style="enable-background:new 0 0 32 32;" xml:space="preserve">
<style type="text/css">
	.st0{fill:#35434C;}
</style>
<path class="st0" d="M12.5,22.8L12.5,22.8L12.5,22.8c0.7,0.7,1.8,0.7,2.5,0l6.7-6.6l4.5-4.5c0.7-0.7,0.7-1.8,0-2.5
	c-0.7-0.7-1.8-0.7-2.5,0l-4.5,4.5h0v0l-5.4,5.4l-5.4-5.4c-0.7-0.7-1.8-0.7-2.5,0c-0.7,0.7-0.7,1.8,0,2.5L12.5,22.8L12.5,22.8z
	 M30.2,0L30.2,0H1.8C0.8,0,0,0.8,0,1.8v28.4c0,1,0.8,1.8,1.8,1.8h28.4c1,0,1.8-0.8,1.8-1.8V1.8C32,0.8,31.2,0,30.2,0L30.2,0z
	 M28.4,28.4L28.4,28.4H3.5V3.6h24.9V28.4L28.4,28.4z"/>
</svg>
