<?xml version="1.0" encoding="utf-8"?>
<!-- Generator: Adobe Illustrator 21.0.0, SVG Export Plug-In . SVG Version: 6.00 Build 0)  -->
<svg version="1.1" id="Layer_1" xmlns="http://www.w3.org/2000/svg" xmlns:xlink="http://www.w3.org/1999/xlink" x="0px" y="0px"
	 viewBox="0 0 25.3 32" style="enable-background:new 0 0 25.3 32;" xml:space="preserve">
<path d="M24.3,13.7c-0.6-0.6-1.5-1-2.4-1h-0.3V9c0-2.5-1-4.7-2.6-6.3C17.3,1,15.1,0,12.6,0C10.2,0,8,1,6.4,2.6L6.3,2.6
	C4.7,4.3,3.7,6.5,3.7,9v3.7H3.4c-0.9,0-1.8,0.4-2.4,1h0l0,0c-0.6,0.6-1,1.5-1,2.4v12.5c0,0.9,0.4,1.8,1,2.4c0.6,0.6,1.5,1,2.4,1
	h18.5c0.9,0,1.7-0.3,2.3-0.9l0.1-0.1c0.6-0.6,1-1.5,1-2.4V16.1C25.3,15.1,24.9,14.3,24.3,13.7L24.3,13.7z M6.5,9L6.5,9
	c0-1.7,0.7-3.2,1.8-4.3l0.1-0.1c1.1-1.1,2.6-1.7,4.3-1.7c1.7,0,3.2,0.7,4.3,1.8c1.1,1.1,1.8,2.6,1.8,4.3v3.7H6.5V9L6.5,9z
	 M22.5,28.6L22.5,28.6c0,0.2-0.1,0.3-0.2,0.4l0,0c-0.1,0.1-0.2,0.1-0.4,0.1H3.4c-0.2,0-0.3-0.1-0.4-0.2c-0.1-0.1-0.2-0.3-0.2-0.4
	V16.1c0-0.2,0.1-0.3,0.2-0.4l0,0c0.1-0.1,0.3-0.2,0.4-0.2h18.5c0.2,0,0.3,0.1,0.4,0.2c0.1,0.1,0.2,0.3,0.2,0.4V28.6L22.5,28.6z
	 M12.6,17.7L12.6,17.7c-0.9,0-1.8,0.4-2.4,1c-0.6,0.6-1,1.5-1,2.4c0,0.9,0.4,1.8,1,2.4c0.4,0.4,1,0.7,1.6,0.9v1.7
	c0,0.5,0.4,0.9,0.9,0.9c0.5,0,0.8-0.4,0.8-0.9v-1.7c0.6-0.1,1.1-0.5,1.6-0.9c0.6-0.6,1-1.5,1-2.4c0-0.9-0.4-1.8-1-2.4
	C14.4,18.1,13.6,17.7,12.6,17.7L12.6,17.7z M13.8,22.3L13.8,22.3c-0.3,0.3-0.7,0.5-1.2,0.5h0h0c-0.5,0-0.9-0.2-1.2-0.5
	c-0.3-0.3-0.5-0.7-0.5-1.2c0-0.5,0.2-0.9,0.5-1.2c0.3-0.3,0.7-0.5,1.2-0.5c0.5,0,0.9,0.2,1.2,0.5c0.3,0.3,0.5,0.7,0.5,1.2
	C14.3,21.6,14.2,22,13.8,22.3L13.8,22.3z"/>
</svg>
