<?xml version="1.0" encoding="utf-8"?>
<!-- Generator: Adobe Illustrator 15.0.0, SVG Export Plug-In . SVG Version: 6.00 Build 0)  -->
<!DOCTYPE svg PUBLIC "-//W3C//DTD SVG 1.1//EN" "http://www.w3.org/Graphics/SVG/1.1/DTD/svg11.dtd">
<svg version="1.1" id="Layer_1" xmlns="http://www.w3.org/2000/svg" xmlns:xlink="http://www.w3.org/1999/xlink" x="0px" y="0px"
	 width="50px" height="50px" viewBox="0 0 50 50" enable-background="new 0 0 50 50" xml:space="preserve">
<g>
	<path fill="#404041" d="M38.535,22.467v-9.252c0-6.526-6.072-11.834-13.536-11.834c-7.464,0-13.532,5.308-13.532,11.834v9.248
		c-1.944,2.709-3.102,6.018-3.102,9.604c0,9.139,7.445,16.553,16.634,16.553c9.188,0,16.635-7.414,16.635-16.553
		C41.635,28.482,40.479,25.175,38.535,22.467z M25,6.4c5.135,0,9.309,3.651,9.309,8.136v3.812c-2.656-1.788-5.859-2.832-9.309-2.832
		c-3.449,0-6.653,1.044-9.311,2.832v-3.812C15.689,10.052,19.865,6.4,25,6.4z M24.816,47.283c-8.281,0-14.998-6.684-14.998-14.929
		c0-3.108,0.955-5.995,2.588-8.382c2.674-4.108,7.311-6.836,12.594-6.836c8.284,0,15.002,6.683,15.002,14.93
		c0,3.109-0.961,5.998-2.596,8.39C34.734,44.564,30.098,47.283,24.816,47.283z"/>
	<path fill="#404041" d="M25,18.028c-7.788,0-14.107,6.284-14.107,14.038c0,7.751,6.319,14.035,14.107,14.035
		c7.792,0,14.104-6.284,14.104-14.035C39.104,24.313,32.791,18.028,25,18.028z M26.887,35.454h-3.096l0.992-2.954
		c-0.635-0.232-1.087-0.843-1.087-1.57c0-0.922,0.733-1.672,1.64-1.672c0.911,0,1.639,0.75,1.639,1.672
		c0,0.728-0.447,1.338-1.084,1.57L26.887,35.454z"/>
</g>
</svg>
