<?xml version="1.0" standalone="no"?>
<!DOCTYPE svg PUBLIC "-//W3C//DTD SVG 20010904//EN"
 "http://www.w3.org/TR/2001/REC-SVG-20010904/DTD/svg10.dtd">
<svg version="1.0" xmlns="http://www.w3.org/2000/svg"
 width="260.000000pt" height="260.000000pt" viewBox="0 0 260.000000 260.000000"
 preserveAspectRatio="xMidYMid meet">
<metadata>
Created by potrace 1.11, written by Peter Selinger 2001-2013
</metadata>
<g transform="translate(0.000000,260.000000) scale(0.100000,-0.100000)"
fill="#000000" stroke="none">
<path d="M1086 2271 c-2 -3 -3 -292 -2 -641 3 -668 3 -671 48 -730 35 -44 70
-52 242 -51 87 0 161 2 163 5 3 3 5 53 6 112 l1 108 -73 2 c-40 1 -75 5 -78 8
-15 15 -21 122 -21 379 l-1 277 22 1 c32 1 101 6 109 8 5 0 26 17 48 37 43 39
57 80 46 138 l-6 33 -93 1 c-50 0 -101 0 -112 1 -19 1 -20 8 -21 114 -1 178
-24 204 -182 204 -51 0 -94 -2 -96 -6z"/>
<path d="M450 2008 c-200 -20 -318 -88 -381 -223 -32 -70 -47 -135 -30 -136 6
0 67 0 136 0 181 0 173 -1 180 22 26 81 169 125 260 82 44 -21 66 -78 45 -118
-18 -34 -61 -48 -249 -85 -239 -46 -320 -89 -378 -201 -25 -49 -28 -63 -28
-159 1 -94 3 -110 27 -156 42 -81 147 -159 238 -179 39 -9 290 -9 342 0 73 12
96 19 156 46 107 48 214 182 230 289 8 47 7 440 0 512 -7 70 -44 153 -88 196
-37 38 -106 75 -169 92 -65 17 -206 26 -291 18z m217 -686 c-3 -53 -11 -101
-21 -120 -33 -64 -126 -107 -206 -96 -41 6 -99 62 -101 96 -5 97 23 125 162
157 46 11 102 27 124 35 22 8 42 15 43 15 2 1 2 -39 -1 -87z"/>
<path d="M1905 1991 c-121 -35 -201 -96 -245 -187 -30 -64 -36 -182 -13 -250
35 -103 156 -179 398 -252 175 -52 207 -70 217 -117 14 -62 -62 -113 -162
-109 -86 3 -154 49 -163 111 -2 12 -5 25 -8 28 -5 5 -136 8 -267 6 l-73 -1 6
-37 c24 -156 128 -264 298 -309 80 -21 105 -24 207 -24 187 -1 304 36 400 126
73 68 95 127 95 249 -1 83 -4 107 -22 140 -26 50 -75 97 -128 123 -39 19 -317
112 -337 112 -28 0 -120 54 -132 78 -31 63 20 116 111 116 73 -1 120 -24 139
-70 10 -24 21 -34 37 -35 95 -3 275 -4 288 -1 23 5 16 51 -18 121 -45 93 -119
148 -244 180 -99 26 -298 26 -384 2z"/>
<path d="M144 589 c-4 -7 -7 -28 -6 -47 1 -28 -1 -33 -16 -27 -41 17 -65 13
-95 -16 -27 -27 -29 -34 -25 -84 4 -41 10 -60 28 -75 26 -22 85 -27 94 -7 5
10 7 10 12 0 3 -7 19 -13 35 -13 33 0 30 -13 31 158 1 56 -1 104 -3 106 -13
12 -48 15 -55 5z m-9 -167 c-1 -15 -3 -30 -4 -33 -2 -14 -34 -19 -47 -8 -20
17 -18 76 3 88 25 14 53 -13 48 -47z"/>
<path d="M239 596 c-1 -1 -3 -12 -4 -25 -2 -17 4 -25 18 -29 20 -5 20 -6 1
-12 -17 -6 -19 -17 -19 -104 l-1 -96 33 0 33 0 0 100 c0 73 -3 100 -12 100
-10 0 -10 2 0 9 8 4 12 19 10 32 -2 18 -9 24 -30 25 -16 1 -29 1 -29 0z"/>
<path d="M1481 587 c-5 -7 -8 -27 -7 -45 2 -26 -1 -31 -13 -26 -45 18 -92 5
-111 -32 -29 -52 -13 -131 29 -154 25 -13 68 -13 76 0 5 8 11 7 20 0 8 -6 24
-10 37 -8 23 3 23 5 25 136 0 72 -2 132 -5 133 -4 0 -15 2 -24 4 -9 2 -21 -2
-27 -8z m-11 -161 c0 -61 -53 -73 -65 -14 -5 21 -2 35 10 48 26 28 55 10 55
-34z"/>
<path d="M2335 593 c-6 -5 -11 -60 -11 -135 l0 -128 34 0 33 0 -3 133 c-3 123
-4 132 -23 135 -11 1 -25 -1 -30 -5z"/>
<path d="M1748 582 c-12 -2 -18 -13 -18 -33 0 -18 -4 -28 -10 -24 -19 12 -23
-26 -4 -44 15 -13 19 -30 18 -72 -1 -36 4 -60 14 -71 19 -23 78 -24 86 -2 8
20 -1 34 -20 34 -10 0 -14 14 -14 54 0 45 3 55 19 59 24 6 21 43 -3 41 -11 -1
-16 6 -16 26 0 29 -18 40 -52 32z"/>
<path d="M356 519 c-14 -11 -26 -26 -26 -34 0 -21 31 -27 56 -10 28 18 67 20
62 3 -3 -7 -26 -18 -53 -25 -26 -7 -52 -16 -57 -21 -15 -15 -16 -67 -2 -87 15
-20 71 -28 91 -13 7 6 19 5 32 -2 25 -13 74 -3 64 13 -4 6 -7 45 -8 85 -1 65
-4 77 -24 93 -32 26 -100 25 -135 -2z m94 -111 c0 -23 -17 -40 -36 -36 -25 4
-30 35 -7 41 33 8 43 7 43 -5z"/>
<path d="M558 518 c-2 -7 -4 -51 -4 -98 l1 -85 33 -3 32 -3 0 63 c0 70 10 94
34 85 16 -6 20 -32 16 -109 -1 -36 0 -38 29 -38 23 0 31 5 32 18 0 9 1 39 2
66 1 34 7 52 19 60 26 16 32 2 32 -74 l1 -70 32 0 33 0 0 80 c0 67 -3 83 -20
100 -22 22 -51 25 -82 9 -14 -8 -23 -8 -31 0 -14 14 -52 14 -77 1 -13 -7 -21
-7 -25 0 -9 14 -52 12 -57 -2z"/>
<path d="M928 513 c-30 -19 -47 -55 -43 -93 1 -14 3 -31 4 -38 0 -7 13 -24 27
-37 40 -37 106 -35 145 4 24 25 29 38 29 79 0 44 -4 54 -31 76 -36 31 -90 34
-131 9z m80 -45 c13 -13 16 -56 6 -82 -7 -18 -39 -22 -49 -6 -15 24 -13 80 4
90 21 12 25 12 39 -2z"/>
<path d="M1127 523 c-9 -16 -4 -188 5 -194 14 -9 48 1 49 15 2 11 5 61 8 104
1 27 29 41 42 21 5 -8 9 -42 9 -76 l0 -63 33 0 34 0 -2 87 c-2 71 -5 89 -20
100 -22 16 -49 17 -75 3 -13 -7 -21 -7 -25 0 -7 12 -52 14 -58 3z"/>
<path d="M1913 520 c-38 -15 -58 -61 -54 -122 1 -9 13 -30 27 -47 22 -27 32
-31 73 -31 37 0 54 6 75 25 14 13 27 28 27 32 6 35 4 82 -5 101 -19 44 -89 64
-143 42z m66 -49 c16 -11 22 -58 9 -83 -11 -22 -44 -23 -52 -2 -10 26 -7 69 6
82 14 14 19 15 37 3z"/>
<path d="M2144 520 c-34 -13 -54 -50 -54 -98 0 -62 40 -102 104 -102 66 0 99
32 102 96 1 27 -4 57 -12 69 -26 40 -90 56 -140 35z m77 -64 c14 -29 4 -75
-16 -83 -36 -13 -58 44 -35 88 15 26 38 24 51 -5z"/>
<path d="M2435 506 c-42 -42 -23 -78 55 -102 20 -6 36 -18 38 -28 3 -15 -1
-17 -20 -11 -12 4 -24 12 -26 16 -6 14 -72 11 -72 -3 2 -57 127 -80 174 -32
25 24 20 69 -9 88 -13 9 -33 16 -43 16 -10 0 -27 6 -38 14 -18 14 -18 15 -1
21 9 4 24 2 31 -5 8 -6 30 -10 48 -8 l33 3 -27 28 c-37 37 -107 39 -143 3z"/>
</g>
</svg>
